<?xml version="1.0" encoding="UTF-8"?>
<svg id="Layer_2" data-name="Layer 2" xmlns="http://www.w3.org/2000/svg" viewBox="0 0 60 60">
  <defs>
    <style>
      .cls-1 {
        fill: #f26b21;
      }
    </style>
  </defs>
  <g id="Layer_1-2" data-name="Layer 1">
    <g>
      <polygon class="cls-1" points="31.68 33.75 37.63 39.71 60 17.34 60 5.43 31.68 33.75"/>
      <polygon class="cls-1" points="54.58 0 42.67 0 31.66 11.03 37.61 16.98 54.58 0"/>
      <polygon class="cls-1" points="22.37 20.29 0 42.66 0 54.57 28.32 26.25 22.37 20.29"/>
      <polygon class="cls-1" points="5.42 59.99 17.33 59.99 28.34 48.97 22.39 43.02 5.42 59.99"/>
      <polygon class="cls-1" points="39.71 22.37 17.34 0 5.43 0 33.75 28.32 39.71 22.37"/>
      <polygon class="cls-1" points="16.98 22.39 0 5.42 0 17.33 11.03 28.34 16.98 22.39"/>
      <polygon class="cls-1" points="20.29 37.63 42.66 60 54.57 60 26.25 31.68 20.29 37.63"/>
      <polygon class="cls-1" points="43.02 37.61 59.99 54.58 59.99 42.67 48.97 31.66 43.02 37.61"/>
    </g>
  </g>
</svg>