<?xml version="1.0" encoding="UTF-8"?>
<svg id="Layer_2" data-name="Layer 2" xmlns="http://www.w3.org/2000/svg" viewBox="0 0 91 11.09">
  <defs>
    <style>
      .cls-1 {
        fill: #fff;
      }
    </style>
  </defs>
  <g id="Layer_1-2" data-name="Layer 1">
    <g>
      <path class="cls-1" d="M0,2.83h1.59v1.08c.45-.66,1.09-1.23,2.18-1.23,1.57,0,2.48,1.05,2.48,2.67v4.43h-1.59v-3.95c0-1.08-.54-1.7-1.49-1.7s-1.57.65-1.57,1.73v3.93H0V2.83Z"/>
      <path class="cls-1" d="M7.13,6.33v-.03c0-1.99,1.41-3.62,3.4-3.62,2.21,0,3.33,1.74,3.33,3.74,0,.14-.01.29-.03.45h-5.11c.17,1.13.97,1.77,2,1.77.78,0,1.33-.29,1.88-.83l.94.83c-.66.79-1.57,1.3-2.85,1.3-2.02,0-3.57-1.46-3.57-3.61M12.28,5.82c-.11-1.03-.71-1.83-1.77-1.83-.98,0-1.66.75-1.81,1.83h3.57Z"/>
      <polygon class="cls-1" points="16.37 6.26 13.9 2.83 15.64 2.83 17.25 5.12 18.86 2.83 20.56 2.83 18.09 6.22 20.66 9.79 18.92 9.79 17.21 7.35 15.51 9.79 13.81 9.79 16.37 6.26"/>
      <path class="cls-1" d="M20.56,6.35v-.03c0-1.99,1.58-3.64,3.72-3.64s3.7,1.62,3.7,3.61v.03c0,1.98-1.58,3.62-3.73,3.62s-3.69-1.62-3.69-3.6M26.38,6.35v-.03c0-1.23-.88-2.24-2.13-2.24s-2.1,1-2.1,2.21v.03c0,1.21.88,2.24,2.12,2.24s2.11-1.01,2.11-2.21"/>
      <path class="cls-1" d="M28.37,8.88l.71-1.08c.75.57,1.57.86,2.28.86s1.08-.29,1.08-.75v-.03c0-.54-.74-.72-1.56-.98-1.03-.29-2.17-.71-2.17-2.04v-.03c0-1.32,1.09-2.12,2.48-2.12.87,0,1.82.3,2.56.79l-.63,1.13c-.67-.41-1.38-.66-1.96-.66-.62,0-.98.29-.98.7v.03c0,.5.75.71,1.57.98,1.02.32,2.16.78,2.16,2.03v.03c0,1.46-1.13,2.19-2.58,2.19-.99,0-2.08-.36-2.95-1.04"/>
      <path class="cls-1" d="M34.63,6.45v-.03c0-1.88,1.5-3.52,3.43-3.52,1.26,0,2.06.58,2.69,1.24l-.46.47c-.58-.59-1.24-1.11-2.24-1.11-1.53,0-2.71,1.28-2.71,2.89v.03c0,1.62,1.23,2.91,2.77,2.91.95,0,1.69-.49,2.25-1.12l.45.4c-.68.78-1.5,1.33-2.74,1.33-1.94,0-3.43-1.61-3.43-3.49"/>
      <path class="cls-1" d="M41.82,3.07h.65v1.91c.53-1.2,1.65-2.07,2.98-2.02v.71h-.06c-1.56,0-2.91,1.17-2.91,3.36v2.75h-.65V3.07Z"/>
      <path class="cls-1" d="M45.51,6.44v-.03c0-1.95,1.37-3.51,3.19-3.51s3.08,1.53,3.08,3.52c0,.12,0,.16-.01.26h-5.57c.12,1.67,1.32,2.65,2.64,2.65,1.04,0,1.75-.46,2.31-1.05l.45.4c-.68.74-1.49,1.27-2.78,1.27-1.76,0-3.29-1.41-3.29-3.51M51.09,6.11c-.09-1.36-.87-2.61-2.41-2.61-1.33,0-2.36,1.12-2.48,2.61h4.89Z"/>
      <path class="cls-1" d="M52.33,7.84v-.03c0-1.4,1.2-2.19,2.94-2.19.94,0,1.58.12,2.23.29v-.29c0-1.36-.83-2.06-2.21-2.06-.82,0-1.49.22-2.11.54l-.24-.57c.74-.34,1.46-.58,2.39-.58s1.63.25,2.12.74c.45.45.69,1.07.69,1.9v4.19h-.63v-1.12c-.46.65-1.29,1.28-2.57,1.28s-2.6-.71-2.6-2.11M57.5,7.27v-.77c-.57-.15-1.32-.3-2.28-.3-1.42,0-2.21.63-2.21,1.57v.03c0,.98.92,1.54,1.95,1.54,1.37,0,2.54-.84,2.54-2.07"/>
      <path class="cls-1" d="M59.94,8.06V3.66h-.98v-.59h.98V.92h.65v2.15h2.36v.59h-2.36v4.33c0,.96.57,1.3,1.34,1.3.33,0,.61-.07.99-.24v.61c-.34.16-.67.24-1.09.24-1.04,0-1.88-.57-1.88-1.84"/>
      <path class="cls-1" d="M64.08.43h.8v.88h-.8V.43ZM64.16,3.07h.65v6.72h-.65V3.07Z"/>
      <polygon class="cls-1" points="65.87 3.07 66.62 3.07 69.17 9.06 71.74 3.07 72.46 3.07 69.44 9.84 68.89 9.84 65.87 3.07"/>
      <path class="cls-1" d="M72.58,6.44v-.03c0-1.95,1.37-3.51,3.19-3.51s3.08,1.53,3.08,3.52c0,.12,0,.16-.01.26h-5.57c.12,1.67,1.32,2.65,2.64,2.65,1.04,0,1.75-.46,2.31-1.05l.45.4c-.68.74-1.49,1.27-2.78,1.27-1.77,0-3.29-1.41-3.29-3.51M78.15,6.11c-.09-1.36-.87-2.61-2.41-2.61-1.33,0-2.36,1.12-2.48,2.61h4.89Z"/>
      <path class="cls-1" d="M90.72,2.84c.85,2.26-.3,4.78-2.56,5.62-2.26.85-4.78-.3-5.62-2.56-.85-2.26.3-4.78,2.56-5.62,2.26-.84,4.77.3,5.62,2.56"/>
      <path class="cls-1" d="M84.61,9.19c.27.73-.1,1.53-.82,1.81-.73.27-1.53-.1-1.81-.82-.27-.73.1-1.53.82-1.81.73-.27,1.53.1,1.81.82"/>
    </g>
  </g>
</svg>