<?xml version="1.0" encoding="UTF-8"?>
<svg id="Layer_2" data-name="Layer 2" xmlns="http://www.w3.org/2000/svg" viewBox="0 0 495.21 124.99">
  <defs>
    <style>
      .cls-1 {
        fill: #f26b21;
      }
    </style>
  </defs>
  <g id="Layer_1-2" data-name="Layer 1">
    <polygon class="cls-1" points="65.99 70.31 78.39 82.71 124.99 36.12 124.99 11.31 65.99 70.31"/>
    <polygon class="cls-1" points="113.7 .02 88.89 .02 65.94 22.97 78.35 35.37 113.7 .02"/>
    <polygon class="cls-1" points="46.6 42.27 0 88.87 0 113.68 59 54.68 46.6 42.27"/>
    <polygon class="cls-1" points="11.29 124.97 36.1 124.97 59.05 102.02 46.64 89.62 11.29 124.97"/>
    <polygon class="cls-1" points="82.71 46.6 36.12 0 11.31 0 70.31 59 82.71 46.6"/>
    <polygon class="cls-1" points="35.37 46.64 .02 11.29 .02 36.1 22.97 59.05 35.37 46.64"/>
    <polygon class="cls-1" points="42.27 78.39 88.87 124.99 113.68 124.99 54.68 65.99 42.27 78.39"/>
    <polygon class="cls-1" points="89.62 78.35 124.97 113.7 124.97 88.89 102.02 65.94 89.62 78.35"/>
    <g>
      <path class="cls-1" d="M170.85,25.93c-4.55,4.29-6.8,10.54-6.75,18.75v.58s-8.36.05-8.36.05l.08,14.41,8.37-.05.25,43.7,14.99-.08-.25-43.7,12.32-.07-.08-14.41-12.32.07v-.58c-.04-7.21,4.04-10.52,12.26-9.95l-.08-14.41c-9.07-.49-15.88,1.41-20.42,5.69Z"/>
      <path class="cls-1" d="M205.55,20.06c-2.48.01-4.63.96-6.43,2.83-1.81,1.87-2.71,4.04-2.69,6.52s.94,4.63,2.77,6.43c1.83,1.81,3.99,2.71,6.47,2.69s4.74-.94,6.55-2.77c1.81-1.83,2.71-3.99,2.69-6.47s-.94-4.64-2.77-6.49c-1.83-1.85-4.03-2.77-6.58-2.75Z"/>
      <rect class="cls-1" x="198.43" y="45.55" width="14.99" height="58.11" transform="translate(-.42 1.17) rotate(-.32)"/>
      <polygon class="cls-1" points="325.34 44.87 308.14 44.97 296.48 61.41 286.1 47.08 277.51 59.22 287.88 73.53 266.75 103.32 275.32 103.27 280.28 103.24 284.07 103.22 296.58 85.53 309.29 103.08 326.6 102.98 305.17 73.4 325.34 44.87"/>
      <polygon class="cls-1" points="258.84 73.66 279.02 45.14 270.31 45.19 267.35 45.2 261.82 45.23 250.15 61.67 238.34 45.37 221.02 45.46 241.55 73.8 220.42 103.58 237.74 103.48 250.25 85.8 260.46 99.89 269.06 87.77 258.84 73.66"/>
    </g>
    <g>
      <path d="M423.55,68.02c3.83,1.2,6.92,3.26,9.27,6.18,2.35,2.92,3.52,6.44,3.52,10.56,0,6.47-2.12,11.44-6.35,14.93-4.23,3.49-9.47,5.23-15.71,5.23-4.98,0-9.4-1.14-13.26-3.43-3.86-2.29-6.65-5.66-8.37-10.13l13.39-7.64c1.26,4.18,4,6.27,8.24,6.27,2.17,0,3.85-.52,5.02-1.55,1.17-1.03,1.76-2.4,1.76-4.12s-.59-3.07-1.76-4.08c-1.17-1-2.85-1.5-5.02-1.5h-3.26l-5.92-8.75,9.61-11.76h-20.17v-14.68h39.05v12.1l-10.04,12.36Z"/>
      <path d="M466.03,43.56c8.29,0,15.23,2.87,20.81,8.63,5.58,5.75,8.37,12.89,8.37,21.41s-2.79,15.66-8.37,21.41c-5.58,5.75-12.52,8.63-20.81,8.63h-24.46v-60.08h24.46ZM466.03,88.79c4.18,0,7.58-1.39,10.21-4.16,2.63-2.77,3.95-6.45,3.95-11.03s-1.32-8.25-3.95-11.03c-2.63-2.77-6.04-4.16-10.21-4.16h-8.67v30.38h8.67Z"/>
    </g>
    <path class="cls-1" d="M383.58,73.6c-.05-8.68-2.86-15.94-8.43-21.8-5.57-5.86-12.62-8.76-21.14-8.71-8.99.05-16.33,3.02-22.03,8.9-5.7,5.88-8.53,13.2-8.48,21.96.05,8.83,3,16.14,8.84,21.92,5.84,5.78,13.57,8.64,23.18,8.59,11.16-.06,19.58-4.25,25.27-12.58l-12.13-6.9c-2.92,3.89-7.25,5.85-12.98,5.88-8.91.05-14.39-3.56-16.45-10.83l43.81-.25c.37-2.17.56-4.23.55-6.16ZM338.93,68.39c.83-3.72,2.56-6.62,5.18-8.69,2.62-2.07,5.95-3.11,9.98-3.14,3.41-.02,6.46.93,9.14,2.85,2.68,1.92,4.46,4.86,5.34,8.8l-29.64.17Z"/>
  </g>
</svg>