<?xml version="1.0" encoding="UTF-8"?>
<svg id="Layer_2" data-name="Layer 2" xmlns="http://www.w3.org/2000/svg" viewBox="0 0 257.49 96.38">
  <defs>
    <style>.cls-1 { fill: #ee924d; }</style>
  </defs>
  <g id="Layer_1-2" data-name="Layer 1">
    <g>
      <path class="cls-1" d="M17.22,6.41c-5.17,4.82-7.75,11.87-7.75,21.16v.66H0v16.3h9.46v49.42h16.96v-49.42h13.93v-16.3h-13.93v-.66c0-8.15,4.64-11.87,13.93-11.17V.1c-10.25-.61-17.96,1.49-23.13,6.31Z"/>
      <path class="cls-1" d="M56.51,0c-2.81,0-5.24,1.05-7.29,3.15-2.06,2.1-3.09,4.56-3.09,7.36s1.03,5.24,3.09,7.29c2.06,2.06,4.49,3.09,7.29,3.09s5.37-1.03,7.43-3.09c2.06-2.06,3.09-4.49,3.09-7.29s-1.03-5.26-3.09-7.36c-2.06-2.1-4.53-3.15-7.43-3.15Z"/>
      <rect class="cls-1" x="48.09" y="28.83" width="16.96" height="65.72"/>
      <path class="cls-1" d="M257.49,61.68c0-9.81-3.13-18.05-9.4-24.71-6.27-6.66-14.22-9.99-23.86-9.99-10.17,0-18.49,3.31-24.97,9.92-6.49,6.62-9.73,14.87-9.73,24.78s3.29,18.27,9.86,24.84c6.57,6.57,15.29,9.86,26.16,9.86,12.62,0,22.17-4.69,28.65-14.06l-13.67-7.89c-3.33,4.38-8.24,6.57-14.72,6.57-10.08,0-16.25-4.12-18.53-12.36h49.55c.44-2.45.66-4.77.66-6.97ZM207.02,55.51c.96-4.21,2.93-7.47,5.91-9.79,2.98-2.32,6.75-3.48,11.3-3.48,3.85,0,7.29,1.1,10.32,3.29,3.02,2.19,5.02,5.52,5.98,9.99h-33.52Z"/>
      <polygon class="cls-1" points="191.81 28.83 172.36 28.83 159.07 47.34 147.42 31.07 137.63 44.75 149.26 61 125.18 94.54 134.86 94.54 140.47 94.54 144.76 94.54 159.02 74.62 173.28 94.54 192.87 94.54 168.81 60.95 191.81 28.83"/>
      <polygon class="cls-1" points="116.42 60.95 139.42 28.83 129.58 28.83 126.23 28.83 119.97 28.83 106.68 47.34 93.42 28.83 73.84 28.83 96.87 61 72.79 94.54 92.37 94.54 106.63 74.62 118.09 90.63 127.9 76.98 116.42 60.95"/>
    </g>
  </g>
</svg>
